PathFileType	4	(X/Y/Z)	Patient4_TMGait_0pt5_02_left_22.trc.trc
DataRate	CameraRate	NumFrames	NumMarkers	Units	OrigDataRate	OrigDataStartFrame	OrigNumFrames
72.916666666667	72.916666666667	4	33	mm	72.916666666667	36	       141
Frame#	Time	Sacral			L.Shoulder			Chest			R.Shoulder			Neck			R.ASIS			L.ASIS			R.Thigh.Superior			R.Thigh.Lateral			R.Thigh.Inferior			R.Patella			L.Thigh.Superior			L.Thigh.Lateral			L.Thigh.Inferior			L.Patella			L.Shank.Superior			L.Shank.Lateral			L.Shank.Inferior			R.Shank.Superior			R.Shank.Lateral			R.Shank.Inferior			R.Heel			R.Midfoot.Superior			R.Midfoot.Lateral			R.Toe			L.Heel			L.Midfoot.Lateral			L.Midfoot.Superior			L.Toe			L.Elbow			L.Wrist			R.Elbow			R.Wrist			
		X1	Y1	Z1	X2	Y2	Z2	X3	Y3	Z3	X4	Y4	Z4	X5	Y5	Z5	X6	Y6	Z6	X7	Y7	Z7	X8	Y8	Z8	X9	Y9	Z9	X10	Y10	Z10	X11	Y11	Z11	X12	Y12	Z12	X13	Y13	Z13	X14	Y14	Z14	X15	Y15	Z15	X16	Y16	Z16	X17	Y17	Z17	X18	Y18	Z18	X19	Y19	Z19	X20	Y20	Z20	X21	Y21	Z21	X22	Y22	Z22	X23	Y23	Z23	X24	Y24	Z24	X25	Y25	Z25	X26	Y26	Z26	X27	Y27	Z27	X28	Y28	Z28	X29	Y29	Z29	X30	Y30	Z30	X31	Y31	Z31	X32	Y32	Z32	X33	Y33	Z33	

36	28.380000000000	514.896642993561	1007.697937748573	495.858994123033	681.665122438653	1445.139544103943	338.623464243574	791.333872448792	1362.040219358038	488.386533761324	717.710146015827	1422.765456515495	672.234886075895	692.152093091854	1494.735229973918	493.925582219305	744.579345951621	940.154858924970	607.416146281072	724.188551334419	961.659850542669	333.079071033075	750.733096512965	729.138898760270	586.795976416060	649.762897971756	634.839805406911	650.526384272388	717.170079845493	566.408464194275	576.634921857760	699.224628095470	471.991258072571	587.567758737678	791.008800949903	762.376067704888	363.017206821379	720.504181889838	637.240510437616	299.436529083020	817.553391410726	569.069662757592	358.684912351735	828.010680311308	495.980644712784	365.572143670748	800.463605904123	422.390173033588	357.905687663410	712.890132709399	308.568515083089	303.561556719247	765.143470589435	195.940261309280	370.586555205582	645.773652471966	394.498629262176	594.631658431249	546.958683972010	317.226875382713	657.673635996651	563.969514356299	211.333025956013	599.737307585017	393.427836452043	70.834463747898	577.769493000715	571.880512815038	100.293932532883	602.558485175871	479.564777314414	47.161030526676	644.500036227580	684.885856669800	36.438487256760	620.049162488199	638.349293367167	38.641574195321	405.338149441064	712.850969280829	35.937843981698	325.621777801077	795.943324382202	96.810767107126	352.366649527319	924.259300597580	43.860350037464	323.871666343885	572.610843567741	1119.171451794227	201.237655959909	624.932401830443	860.621688897964	193.203197638370	785.089039708842	1083.873574719667	779.694238019350	1031.849299677318	1077.521896685264	726.330315357383	
37	28.393714285714	513.595537171006	1008.494263768532	492.551751098788	680.665512057052	1445.778529727039	335.210567625825	790.293328088518	1362.794210232999	485.078348550471	716.623597206101	1423.795584751524	668.879860209125	691.145121731626	1495.442775843239	490.441917264421	743.352921378222	940.757516412604	603.984733172527	722.885155023106	962.267566635108	329.677947777217	750.399097709907	729.824395204027	584.217268254308	649.935292206840	635.389494443789	648.325540898557	717.984457997392	566.808235437929	574.841252551822	700.477900891372	471.361390134759	586.907275983552	788.678909096054	762.069183597660	359.699360239697	716.384811523220	637.057895244602	297.500113150731	813.005202257081	568.366383602699	356.610497028547	822.847027625511	495.479473523571	364.213362660549	795.087971693349	421.995807606365	356.786431845163	707.179812594697	308.331651179491	302.698685576287	758.778034094144	195.736291899996	370.299350654840	645.248878878714	394.769697833918	593.985084609224	544.974867648872	319.393628693892	656.939675351848	560.617915727147	212.863982780815	599.868890057246	387.703854997494	74.973803830491	578.190552237500	566.757816423004	100.795466779205	603.059296514516	473.435586986091	49.113279726230	644.689450481755	678.259092209707	36.396684034798	619.986886047464	631.409796679868	38.654604956607	405.311928226311	705.917748178726	35.891963911355	325.612883900437	789.090324828456	96.680372393046	352.372492244953	917.390704645304	43.502153160509	323.895501627833	573.037761937068	1119.659253307200	196.664265189578	632.869375621280	862.593017442596	189.071974749821	778.526969442576	1083.996386895038	777.987257173568	1025.607171563414	1066.692202803473	728.440992548551	
38	28.407428571429	512.220364819990	1009.341797961805	489.294651233596	679.717415126284	1446.479539804231	331.768892708998	789.229486675440	1363.609464389436	481.782141224635	715.450555225993	1424.890570290583	665.502736006479	690.117032839313	1496.196843323088	486.927069655796	742.088224517500	941.463468957030	600.545884730892	721.501654450255	962.909084096217	326.306358009388	750.540792324599	730.682091031381	581.655085620669	650.917824618470	635.913099693433	646.215868677880	719.743783900493	567.303385536477	573.087837701361	702.808145029837	470.732694311546	586.414628475926	786.024569401651	761.639953582113	356.640459926515	712.163999605944	636.977931261214	295.499284612067	808.085994747549	567.684118358190	354.773816948262	817.262157293800	494.971050247407	362.892361043848	789.352907293396	421.630962593299	355.625128675963	701.171346172296	308.055110163586	301.842789703052	752.264727457210	195.550822948699	369.998048288130	645.688404440729	395.084373328397	593.513910447377	543.862600943858	321.804248744602	656.356548788571	557.934053309171	214.627800223812	600.184936055203	382.358704340183	79.865277345117	578.812973866598	562.014609469338	101.317120916787	603.707629697317	467.526750524434	51.437077771674	644.996840370365	671.657181565106	36.381175311269	619.904565834025	624.450279049680	38.632558678748	405.312229467875	698.958560345461	35.825134015646	325.621356430157	782.197836027509	96.544899110928	352.382807795971	910.484619519671	43.180135332682	323.932501624055	573.588956218916	1120.276177107836	191.920745000131	641.372393712092	865.022993413404	184.794368979040	771.369433730686	1084.068833518097	775.874944994569	1018.285119582192	1055.226838324479	730.692973131479	
39	28.421142857143	510.771982734222	1010.214225797086	486.111702898378	678.816928898914	1447.218095990108	328.306511043872	788.136823841705	1364.459584267645	478.506218067621	714.191357905608	1426.036227470456	662.108810921942	689.057312098829	1496.976783250369	483.391711475343	740.760897026195	942.251361688829	597.109526134822	720.021311005060	963.571851544206	322.975448586230	751.175593411553	731.718479291437	579.089968580147	652.795243889761	636.396293174438	644.210065420561	722.526493955817	567.903838656499	571.358756508518	706.312089708373	470.128980179646	586.073449163790	783.105515680525	761.143035358632	353.803273501073	707.856777743463	637.003330850542	293.438216836515	802.860414560591	567.035961303077	353.105374786786	811.329413496885	494.471861172155	361.583328890485	783.328160809059	421.301573761043	354.415192636203	694.929088084032	307.755228771300	300.972568700095	745.639517674321	195.389319093428	369.668733519859	647.209474995408	395.449640814650	593.214595951119	543.747523571069	324.485902623132	655.933451781097	556.022653438494	216.664766086619	600.693722010757	377.524557894189	85.670795421469	579.663748818688	557.715541501716	101.892091111452	604.515848220466	461.905747956179	54.254779136444	645.439727685728	665.068856495377	36.353693580472	619.807337113175	617.487646015032	38.588373013626	405.326038786826	691.990673792624	35.748846799213	325.633910704883	775.284183834238	96.415859620510	352.385221650799	903.560541916145	42.901286044154	323.969446942494	574.336689758785	1120.988168837607	187.009132675438	650.464654928753	867.932551943811	180.418764687692	763.599928498886	1084.100315810334	773.355315232639	1009.774890281621	1043.192849473433	733.084597053904	
